<svg width="480" height="480" viewBox="0 0 480 480" fill="none" xmlns="http://www.w3.org/2000/svg">
<path d="M273.851 435.874C273.851 438.402 273.574 440.865 273.051 443.235C273.846 452.836 270.571 462.711 263.227 470.057C249.973 483.314 228.484 483.314 215.23 470.057L10.0489 264.828C4.08461 258.862 0.804271 251.229 0.207931 243.428C-0.889141 233.533 2.35501 223.248 9.94041 215.661L130.082 95.4915C143.336 82.2345 164.825 82.2346 178.078 95.4915C191.332 108.748 191.332 130.242 178.078 143.499L81.4099 240.19L205.973 364.783V33.9466C205.973 15.1984 221.168 0 239.912 0C249.408 0 257.993 3.90098 264.153 10.1882C264.233 10.2668 264.313 10.3457 264.393 10.4252L469.574 215.654C472.964 219.045 475.487 222.975 477.143 227.168C482.601 239.605 480.239 254.646 470.06 264.828L349.918 384.998C336.664 398.255 315.175 398.255 301.922 384.998C288.668 371.741 288.668 350.247 301.922 336.99L398.405 240.484L273.851 115.901V435.874Z" fill="#F4EEEE"/>
</svg>
